<?xml version="1.0" encoding="UTF-8" standalone="no"?>
<svg
   xmlns:dc="http://purl.org/dc/elements/1.1/"
   xmlns:cc="http://creativecommons.org/ns#"
   xmlns:rdf="http://www.w3.org/1999/02/22-rdf-syntax-ns#"
   xmlns:svg="http://www.w3.org/2000/svg"
   xmlns="http://www.w3.org/2000/svg"
   xmlns:sodipodi="http://sodipodi.sourceforge.net/DTD/sodipodi-0.dtd"
   xmlns:inkscape="http://www.inkscape.org/namespaces/inkscape"
   height="74px"
   id="Capa_1"
   style="enable-background:new 0 0 90 74;"
   version="1.1"
   viewBox="0 0 90 74"
   width="90px"
   xml:space="preserve"
   inkscape:version="0.91 r13725"
   sodipodi:docname="iconfinder_sea1_216717.svg"><metadata
     id="metadata39"><rdf:RDF><cc:Work
         rdf:about=""><dc:format>image/svg+xml</dc:format><dc:type
           rdf:resource="http://purl.org/dc/dcmitype/StillImage" /></cc:Work></rdf:RDF></metadata><defs
     id="defs37" /><sodipodi:namedview
     pagecolor="#ffffff"
     bordercolor="#666666"
     borderopacity="1"
     objecttolerance="10"
     gridtolerance="10"
     guidetolerance="10"
     inkscape:pageopacity="0"
     inkscape:pageshadow="2"
     inkscape:window-width="1680"
     inkscape:window-height="998"
     id="namedview35"
     showgrid="false"
     inkscape:zoom="3.1891892"
     inkscape:cx="45"
     inkscape:cy="37"
     inkscape:window-x="1358"
     inkscape:window-y="-8"
     inkscape:window-maximized="1"
     inkscape:current-layer="Capa_1" /><path
     d="m 8.219,18.79 c 8.736,-7.502 15.637,-13.433 34.359,-2.854 8.994,5.081 16.249,6.999 22.289,6.998 10.575,0 17.426,-5.883 23.352,-10.975 2.113,-1.814 2.385,-5.035 0.607,-7.194 C 87.048,2.606 83.894,2.327 81.781,4.144 73.046,11.649 66.146,17.578 47.418,6.997 22.679,-6.978 11.092,2.977 1.781,10.974 c -2.112,1.815 -2.385,5.036 -0.607,7.195 1.777,2.158 4.931,2.437 7.045,0.621 z M 81.781,29.678 C 73.046,37.181 66.146,43.111 47.418,32.531 22.679,18.555 11.092,28.51 1.781,36.508 c -2.112,1.816 -2.385,5.037 -0.607,7.193 1.777,2.159 4.932,2.438 7.045,0.622 8.736,-7.503 15.637,-13.433 34.359,-2.855 8.994,5.081 16.249,7 22.289,7 10.575,0 17.426,-5.884 23.352,-10.975 2.113,-1.816 2.385,-5.037 0.607,-7.194 -1.777,-2.161 -4.931,-2.438 -7.045,-0.621 z m 0,25.531 C 73.046,62.713 66.146,68.642 47.418,58.063 22.679,44.087 11.092,54.042 1.781,62.04 c -2.112,1.815 -2.385,5.037 -0.607,7.196 1.777,2.156 4.932,2.436 7.045,0.62 8.736,-7.505 15.636,-13.432 34.359,-2.856 8.994,5.083 16.249,7 22.289,7 10.575,0 17.426,-5.884 23.352,-10.974 2.113,-1.815 2.385,-5.038 0.607,-7.196 -1.778,-2.158 -4.931,-2.435 -7.045,-0.621 z"
     id="path3"
     inkscape:connector-curvature="0"
     style="fill:#ffffff;fill-opacity:1;stroke:none;stroke-opacity:1" /><g
     id="g5" /><g
     id="g7" /><g
     id="g9" /><g
     id="g11" /><g
     id="g13" /><g
     id="g15" /><g
     id="g17" /><g
     id="g19" /><g
     id="g21" /><g
     id="g23" /><g
     id="g25" /><g
     id="g27" /><g
     id="g29" /><g
     id="g31" /><g
     id="g33" /></svg>