<?xml version="1.0" encoding="UTF-8" standalone="no"?>
<!-- Creator: CorelDRAW -->

<svg
   xmlns:dc="http://purl.org/dc/elements/1.1/"
   xmlns:cc="http://creativecommons.org/ns#"
   xmlns:rdf="http://www.w3.org/1999/02/22-rdf-syntax-ns#"
   xmlns:svg="http://www.w3.org/2000/svg"
   xmlns="http://www.w3.org/2000/svg"
   xmlns:sodipodi="http://sodipodi.sourceforge.net/DTD/sodipodi-0.dtd"
   xmlns:inkscape="http://www.inkscape.org/namespaces/inkscape"
   xml:space="preserve"
   width="94.3375mm"
   height="42.8562mm"
   style="shape-rendering:geometricPrecision; text-rendering:geometricPrecision; image-rendering:optimizeQuality; fill-rule:evenodd; clip-rule:evenodd"
   viewBox="0 0 85.5527 38.8654"
   id="svg2"
   version="1.1"
   inkscape:version="0.91 r13725"
   sodipodi:docname="Logo_datalab_blanc.svg"><metadata
     id="metadata100"><rdf:RDF><cc:Work
         rdf:about=""><dc:format>image/svg+xml</dc:format><dc:type
           rdf:resource="http://purl.org/dc/dcmitype/StillImage" /><dc:title></dc:title></cc:Work></rdf:RDF></metadata><sodipodi:namedview
     pagecolor="#c46464"
     bordercolor="#666666"
     borderopacity="1"
     objecttolerance="10"
     gridtolerance="10"
     guidetolerance="10"
     inkscape:pageopacity="0"
     inkscape:pageshadow="2"
     inkscape:window-width="1680"
     inkscape:window-height="998"
     id="namedview98"
     showgrid="false"
     inkscape:zoom="1.0650177"
     inkscape:cx="237.49962"
     inkscape:cy="75.926341"
     inkscape:window-x="1358"
     inkscape:window-y="-8"
     inkscape:window-maximized="1"
     inkscape:current-layer="svg2" /><defs
     id="defs4"><style
       type="text/css"
       id="style6"><![CDATA[
    .fil5 {fill:#605D5C}
    .fil6 {fill:#816751}
    .fil7 {fill:#CCAB77}
    .fil3 {fill:#00736F}
    .fil2 {fill:#32A8B7}
    .fil0 {fill:#86672E}
    .fil1 {fill:#B4DDE9}
    .fil4 {fill:#605D5C;fill-rule:nonzero}
   ]]></style></defs><path
     style="fill:#ffffff;fill-opacity:1"
     inkscape:connector-curvature="0"
     id="path10"
     d="m 27.0867,7.50161 2.78956,0 0,9.89006 -2.78956,0 0,-9.89006 z m -0.10937,13.3581 2.78947,0 0,2.64663 -2.78947,0 0,-2.64663 z"
     class="fil0" /><polygon
     style="fill:#ffffff;fill-opacity:1"
     id="polygon12"
     points="16.4285,17.3917 13.639,17.3917 13.639,0 16.4285,0 "
     class="fil1" /><polygon
     style="fill:#ffffff;fill-opacity:1"
     id="polygon14"
     points="16.4285,20.8598 13.639,20.8598 13.639,26.1719 16.4285,26.1719 "
     class="fil1" /><polygon
     style="fill:#ffffff;fill-opacity:1"
     id="polygon16"
     points="78.2224,20.4443 75.7387,29.3262 74.4633,29.3262 76.9536,20.4443 "
     class="fil2" /><path
     style="fill:#ffffff;fill-opacity:1"
     inkscape:connector-curvature="0"
     id="path18"
     d="m 18.0908,29.1805 2.78956,0 0,-8.3207 -2.78956,0 0,8.3207 z m -17.7365,-4.92816 2.78956,0 0,-3.39254 -2.78956,0 0,3.39254 z m 0,-14.8134 2.78956,0 0,7.95269 -2.78956,0 0,-7.95269 z"
     class="fil2" /><polygon
     style="fill:#ffffff;fill-opacity:1"
     id="polygon20"
     points="20.8803,17.3917 18.0908,17.3917 18.0908,2.85395 20.8803,2.85395 "
     class="fil2" /><path
     style="fill:#ffffff;fill-opacity:1"
     inkscape:connector-curvature="0"
     id="path22"
     d="m 67.7987,7.52301 2.90265,10.2769 -2.20245,0 -0.48518,-1.74556 -3.10978,0 -0.492889,1.74556 -2.22884,0 2.87381,-10.2769 2.74267,0 z m -2.47251,6.57278 2.21823,0 -1.07501,-4.01076 -1.14321,4.01076 z"
     class="fil2" /><path
     style="fill:#ffffff;fill-opacity:1"
     inkscape:connector-curvature="0"
     id="path24"
     d="m 31.4184,11.6556 2.78947,0 0,5.7361 -2.78947,0 0,-5.7361 z m -22.1605,17.525 2.78947,0 0,-8.3207 -2.78947,0 0,8.3207 z m 0,-26.3265 2.78947,0 0,14.5376 -2.78947,0 0,-14.5376 z"
     class="fil3" /><path
     style="fill:#ffffff;fill-rule:nonzero;fill-opacity:1"
     inkscape:connector-curvature="0"
     id="path26"
     d="m 0.372818,37.7879 0,-3.66415 1.18674,0 c 0.44954,0 0.743006,0.01868 0.879582,0.05541 0.209852,0.05459 0.386421,0.17403 0.528075,0.358308 0.141564,0.184278 0.212391,0.422333 0.212391,0.71326 0,0.225178 -0.0409,0.414625 -0.122882,0.567253 -0.081891,0.153625 -0.185094,0.273877 -0.311331,0.361754 -0.125421,0.08706 -0.253382,0.14501 -0.383066,0.173214 -0.176569,0.03501 -0.432581,0.05287 -0.767854,0.05287 l -0.482006,0 0,1.38208 -0.73965,0 z m 0.73965,-3.04394 0,1.0391 0.404377,0 c 0.291834,0 0.487175,-0.01877 0.585299,-0.05722 0.098124,-0.03836 0.174846,-0.09803 0.231163,-0.179925 0.055501,-0.08198 0.083614,-0.17666 0.083614,-0.285032 0,-0.133039 -0.039268,-0.243134 -0.117713,-0.330104 -0.077629,-0.08615 -0.177476,-0.140748 -0.296912,-0.16215 -0.088693,-0.01705 -0.266169,-0.02467 -0.532338,-0.02467 l -0.357492,0 z"
     class="fil4" /><path
     style="fill:#ffffff;fill-rule:nonzero;fill-opacity:1"
     inkscape:connector-curvature="0"
     d="M 6.2834,35.9434 5.646136,35.828226 c 0.071643,-0.256737 0.194525,-0.446184 0.369372,-0.569882 0.175753,-0.122791 0.43512,-0.185094 0.779734,-0.185094 0.313961,0 0.546938,0.03755 0.700473,0.111727 0.152718,0.07427 0.26109,0.168045 0.323302,0.282402 0.062303,0.114357 0.093862,0.323302 0.093862,0.628739 l -0.00771,0.819909 c 0,0.232886 0.011155,0.405193 0.034189,0.516105 0.022128,0.110095 0.064842,0.229531 0.126237,0.355768 l -0.695304,0 C 7.352335,37.74101 7.3293,37.67191 7.30291,37.580588 7.291846,37.538778 7.283231,37.511488 7.278152,37.497878 7.1579,37.614684 7.029849,37.701744 6.893363,37.760601 c -0.136485,0.05804 -0.282402,0.08706 -0.43766,0.08706 -0.27297,0 -0.488808,-0.07427 -0.645788,-0.221823 -0.157797,-0.148456 -0.236333,-0.33618 -0.236333,-0.563081 0,-0.149363 0.035822,-0.283218 0.107465,-0.401022 0.071734,-0.117713 0.172398,-0.207312 0.301174,-0.269524 0.128867,-0.0623 0.315684,-0.116897 0.558819,-0.163873 0.327655,-0.0614 0.555372,-0.119436 0.681701,-0.172307 l 0,-0.06992 c 0,-0.135669 -0.033282,-0.231254 -0.099847,-0.289204 -0.066565,-0.05722 -0.191986,-0.08625 -0.37708,-0.08625 -0.125421,0 -0.222639,0.02476 -0.29265,0.07427 -0.06992,0.04861 -0.126237,0.134762 -0.169768,0.25846 z m 0.939345,0.569882 c -0.0896,0.02993 -0.23207,0.06575 -0.427503,0.107556 -0.194435,0.04181 -0.321579,0.08271 -0.382159,0.121975 -0.091323,0.06566 -0.137392,0.147549 -0.137392,0.247396 0,0.09894 0.036729,0.183462 0.110095,0.255105 0.073366,0.07164 0.166322,0.107465 0.279863,0.107465 0.127054,0 0.247396,-0.04181 0.36257,-0.124514 0.085247,-0.06312 0.140748,-0.140748 0.167228,-0.232886 0.018682,-0.05976 0.027297,-0.174121 0.027297,-0.342165 l 0,-0.139931 z"
     class="fil4"
     id="1" /><path
     style="fill:#ffffff;fill-rule:nonzero;fill-opacity:1"
     inkscape:connector-curvature="0"
     d="m 10.2497,35.1338 0.747359,0 0.634724,1.88458 0.620214,-1.88458 0.726863,0 -0.936715,2.55422 -0.168135,0.462417 c -0.0614,0.154441 -0.120252,0.27297 -0.175753,0.354952 -0.05632,0.08189 -0.120252,0.147549 -0.192802,0.198697 -0.07246,0.05042 -0.161243,0.09051 -0.266985,0.11862 -0.105833,0.0282 -0.225269,0.04262 -0.359215,0.04262 -0.134762,0 -0.266985,-0.01442 -0.397576,-0.04262 l -0.06221,-0.550294 c 0.110004,0.02222 0.209036,0.03247 0.297728,0.03247 0.162966,0 0.284125,-0.04779 0.36257,-0.143378 0.07763,-0.09549 0.138208,-0.217469 0.180015,-0.365926 l -1.01008,-2.66178 z"
     class="fil4"
     id="12" /><path
     style="fill:#ffffff;fill-rule:nonzero;fill-opacity:1"
     inkscape:connector-curvature="0"
     d="m 15.1587,37.0303 0.704735,-0.107465 c 0.02984,0.136485 0.09042,0.240595 0.182555,0.311422 0.09132,0.07074 0.219283,0.106649 0.384789,0.106649 0.181738,0 0.318224,-0.03328 0.409456,-0.100754 0.0623,-0.04607 0.09305,-0.109188 0.09305,-0.186817 0,-0.05369 -0.01705,-0.09812 -0.05033,-0.133039 -0.03501,-0.03328 -0.113541,-0.06403 -0.234609,-0.09214 -0.566527,-0.124605 -0.925651,-0.238872 -1.07755,-0.342165 -0.209852,-0.143287 -0.314778,-0.342891 -0.314778,-0.597996 0,-0.229531 0.09042,-0.42315 0.272154,-0.579314 0.181738,-0.156981 0.463234,-0.235426 0.844576,-0.235426 0.363477,0 0.633908,0.05967 0.810477,0.177476 0.176569,0.118529 0.297728,0.293466 0.364293,0.525536 l -0.662021,0.121975 c -0.0282,-0.103293 -0.08189,-0.182555 -0.161243,-0.237149 -0.07935,-0.0555 -0.191986,-0.0828 -0.338719,-0.0828 -0.185094,0 -0.317317,0.02557 -0.397576,0.07763 -0.05287,0.03673 -0.07935,0.08443 -0.07935,0.142471 0,0.05033 0.02303,0.09214 0.07001,0.127144 0.06312,0.04689 0.281495,0.112634 0.656036,0.197881 0.373725,0.08452 0.634724,0.18854 0.78318,0.312238 0.146733,0.125421 0.220099,0.299451 0.220099,0.522181 0,0.243134 -0.10148,0.452986 -0.305437,0.627832 -0.20305,0.174937 -0.503318,0.261997 -0.901709,0.261997 -0.361754,0 -0.647511,-0.07346 -0.859086,-0.22019 -0.210759,-0.145826 -0.348151,-0.345521 -0.412993,-0.59718 z"
     class="fil4"
     id="123" /><path
     style="fill:#ffffff;fill-rule:nonzero;fill-opacity:1"
     inkscape:connector-curvature="0"
     d="m 29.348,37.7879 -0.651864,0 0,-0.389867 c -0.108281,0.151811 -0.236242,0.264446 -0.383882,0.338719 -0.147549,0.07418 -0.296005,0.110911 -0.446184,0.110911 -0.305437,0 -0.566436,-0.122882 -0.783997,-0.368555 -0.216744,-0.245764 -0.325932,-0.588746 -0.325932,-1.02804 0,-0.450447 0.105833,-0.792612 0.317408,-1.02631 0.211575,-0.233793 0.479467,-0.351506 0.802769,-0.351506 0.296005,0 0.552833,0.123698 0.769486,0.370279 l 0,-1.31978 0.702196,0 0,3.66415 z m -1.87434,-1.38462 c 0,0.283218 0.03927,0.487991 0.117713,0.615136 0.112634,0.182555 0.271338,0.274694 0.474297,0.274694 0.16215,0 0.299451,-0.0691 0.412993,-0.206496 0.112544,-0.137301 0.169768,-0.342981 0.169768,-0.615952 0,-0.30453 -0.0555,-0.524629 -0.164689,-0.658575 -0.110004,-0.133946 -0.250843,-0.201418 -0.42315,-0.201418 -0.166322,0 -0.305437,0.06656 -0.418071,0.198788 -0.112544,0.132314 -0.168861,0.330194 -0.168861,0.593824 z"
     class="fil4"
     id="1234" /><path
     style="fill:#ffffff;fill-rule:nonzero;fill-opacity:1"
     inkscape:connector-curvature="0"
     d="m 33.554,36.9433 0.700473,0.116897 c -0.09051,0.256737 -0.23207,0.452079 -0.426596,0.586025 -0.193709,0.134853 -0.436843,0.201418 -0.728586,0.201418 -0.461511,0 -0.802769,-0.150179 -1.02459,-0.45217 -0.174937,-0.241502 -0.262813,-0.546848 -0.262813,-0.914587 0,-0.440199 0.115174,-0.784903 0.345521,-1.03402 0.229531,-0.24912 0.520458,-0.373634 0.871964,-0.373634 0.394946,0 0.706368,0.1305 0.934992,0.39159 0.227808,0.261 0.336996,0.660298 0.327655,1.19862 l -1.76007,0 c 0.0052,0.208219 0.06149,0.370279 0.169768,0.485452 0.108372,0.11599 0.244041,0.17403 0.405284,0.17403 0.110004,0 0.202143,-0.02984 0.277233,-0.0896 0.07509,-0.06058 0.132223,-0.156981 0.169768,-0.29002 z m 0.04008,-0.709814 c -0.0051,-0.203957 -0.05713,-0.358308 -0.156981,-0.46414 -0.09976,-0.105742 -0.221823,-0.158704 -0.365109,-0.158704 -0.153535,0 -0.279863,0.05632 -0.379619,0.168135 -0.09985,0.110911 -0.149363,0.262723 -0.14764,0.454709 l 1.04935,0 z"
     class="fil4"
     id="12345" /><polygon
     style="fill:#ffffff;fill-rule:nonzero;fill-opacity:1"
     points="44.2275,34.1238 44.2275,37.7879 43.5254,37.7879 43.5254,34.1238 "
     class="fil4"
     id="123456" /><path
     style="fill:#ffffff;fill-rule:nonzero;fill-opacity:1"
     inkscape:connector-curvature="0"
     d="m 47.449,35.9434 -0.637264,-0.115174 c 0.07164,-0.256737 0.194525,-0.446184 0.369372,-0.569882 0.175753,-0.122791 0.43512,-0.185094 0.779734,-0.185094 0.313961,0 0.546938,0.03755 0.700473,0.111727 0.152718,0.07427 0.26109,0.168045 0.323302,0.282402 0.0623,0.114357 0.09386,0.323302 0.09386,0.628739 l -0.0077,0.819909 c 0,0.232886 0.01115,0.405193 0.03419,0.516105 0.02213,0.110095 0.06484,0.229531 0.126237,0.355768 l -0.695304,0 c -0.01796,-0.04689 -0.04099,-0.11599 -0.06738,-0.207312 -0.01106,-0.04181 -0.01968,-0.0691 -0.02476,-0.08271 -0.120252,0.116806 -0.248303,0.203866 -0.384789,0.262723 -0.136485,0.05804 -0.282402,0.08706 -0.43766,0.08706 -0.27297,0 -0.488808,-0.07427 -0.645788,-0.221823 -0.157797,-0.148456 -0.236333,-0.33618 -0.236333,-0.563081 0,-0.149363 0.03582,-0.283218 0.107465,-0.401022 0.07173,-0.117713 0.172398,-0.207312 0.301174,-0.269524 0.128867,-0.0623 0.315684,-0.116897 0.558819,-0.163873 0.327655,-0.0614 0.555372,-0.119436 0.681701,-0.172307 l 0,-0.06992 c 0,-0.135669 -0.03328,-0.231254 -0.09985,-0.289204 -0.06657,-0.05722 -0.191986,-0.08625 -0.37708,-0.08625 -0.125421,0 -0.222639,0.02476 -0.29265,0.07427 -0.06992,0.04861 -0.126237,0.134762 -0.169768,0.25846 z m 0.939345,0.569882 c -0.0896,0.02993 -0.23207,0.06575 -0.427503,0.107556 -0.194435,0.04181 -0.321579,0.08271 -0.382159,0.121975 -0.09132,0.06566 -0.137392,0.147549 -0.137392,0.247396 0,0.09894 0.03673,0.183462 0.110095,0.255105 0.07337,0.07164 0.166322,0.107465 0.279863,0.107465 0.127054,0 0.247396,-0.04181 0.36257,-0.124514 0.08525,-0.06312 0.140748,-0.140748 0.167228,-0.232886 0.01868,-0.05976 0.0273,-0.174121 0.0273,-0.342165 l 0,-0.139931 z"
     class="fil4"
     id="1234567" /><polygon
     style="fill:#ffffff;fill-rule:nonzero;fill-opacity:1"
     points="59.1966,34.1536 59.1966,37.1702 61.0359,37.1702 61.0359,37.7879 58.4568,37.7879 58.4568,34.1536 "
     class="fil4"
     id="12345678" /><path
     style="fill:#ffffff;fill-rule:nonzero;fill-opacity:1"
     inkscape:connector-curvature="0"
     d="m 63.3728,36.4229 c 0,-0.232886 0.05795,-0.458971 0.172307,-0.677348 0.115174,-0.21756 0.27814,-0.384789 0.488808,-0.499055 0.210759,-0.115174 0.446184,-0.173214 0.706458,-0.173214 0.400931,0 0.730219,0.1305 0.987047,0.39159 0.256828,0.261 0.384789,0.590378 0.384789,0.98877 0,0.400931 -0.129684,0.733665 -0.388235,0.998201 -0.259277,0.264446 -0.585209,0.395852 -0.978522,0.395852 -0.24395,0 -0.475204,-0.05468 -0.69612,-0.164689 -0.221006,-0.110095 -0.389051,-0.271338 -0.504224,-0.483729 -0.114357,-0.212391 -0.172307,-0.470942 -0.172307,-0.776379 z m 0.720062,0.03755 c 0,0.26363 0.06221,0.464957 0.187633,0.604888 0.124605,0.139931 0.278956,0.209852 0.462417,0.209852 0.183462,0 0.336996,-0.06992 0.460694,-0.209852 0.124514,-0.139931 0.186817,-0.342981 0.186817,-0.609967 0,-0.259367 -0.0623,-0.459878 -0.186817,-0.599809 -0.123698,-0.139841 -0.277233,-0.209852 -0.460694,-0.209852 -0.183462,0 -0.337812,0.07001 -0.462417,0.209852 -0.125421,0.139931 -0.187633,0.342165 -0.187633,0.604888 z"
     class="fil4"
     id="123456789" /><path
     style="fill:#ffffff;fill-rule:nonzero;fill-opacity:1"
     inkscape:connector-curvature="0"
     d="m 68.6393,34.7738 0,-0.650051 0.702105,0 0,0.650051 -0.702105,0 z m 0,3.0141 0,-2.65407 0.702105,0 0,2.65407 -0.702105,0 z"
     class="fil4"
     id="12345678910" /><path
     style="fill:#ffffff;fill-rule:nonzero;fill-opacity:1"
     inkscape:connector-curvature="0"
     d="m 72.7105,37.7879 -0.702196,0 0,-2.65407 0.651864,0 0,0.37708 c 0.111727,-0.178292 0.212391,-0.296096 0.301084,-0.352322 0.0896,-0.05632 0.190263,-0.08534 0.303714,-0.08534 0.160427,0 0.313961,0.04435 0.462417,0.133039 l -0.21756,0.61169 c -0.117713,-0.07591 -0.227808,-0.114267 -0.329288,-0.114267 -0.09894,0 -0.181738,0.02648 -0.249936,0.08107 -0.0691,0.05369 -0.122066,0.151811 -0.161243,0.293466 -0.03927,0.141564 -0.05886,0.438476 -0.05886,0.889829 l 0,0.819818 z"
     class="fil4"
     id="1234567891011" /><path
     style="fill:#ffffff;fill-rule:nonzero;fill-opacity:1"
     inkscape:connector-curvature="0"
     d="m 77.5436,36.9433 0.700473,0.116897 c -0.09051,0.256737 -0.23207,0.452079 -0.426596,0.586025 -0.193709,0.134853 -0.436843,0.201418 -0.728586,0.201418 -0.461511,0 -0.802769,-0.150179 -1.02459,-0.45217 -0.174937,-0.241502 -0.262813,-0.546848 -0.262813,-0.914587 0,-0.440199 0.115174,-0.784903 0.345521,-1.03402 0.229531,-0.24912 0.520458,-0.373634 0.871964,-0.373634 0.394946,0 0.706368,0.1305 0.934992,0.39159 0.227808,0.261 0.336996,0.660298 0.327655,1.19862 l -1.76007,0 c 0.0052,0.208219 0.06149,0.370279 0.169768,0.485452 0.108372,0.11599 0.244041,0.17403 0.405284,0.17403 0.110004,0 0.202143,-0.02984 0.277233,-0.0896 0.07509,-0.06058 0.132223,-0.156981 0.169768,-0.29002 z m 0.04008,-0.709814 c -0.0051,-0.203957 -0.05713,-0.358308 -0.156981,-0.46414 -0.09976,-0.105742 -0.221823,-0.158704 -0.365109,-0.158704 -0.153535,0 -0.279863,0.05632 -0.379619,0.168135 -0.09985,0.110911 -0.149363,0.262723 -0.14764,0.454709 l 1.04935,0 z"
     class="fil4"
     id="123456789101112" /><polygon
     style="fill:#ffffff;fill-opacity:1"
     id="polygon40"
     points="55.8403,9.41757 55.8403,11.6556 59.3512,11.6556 59.3512,13.55 55.8403,13.55 55.8403,15.8907 60.8354,15.8907 60.8354,17.7852 53.6113,17.7852 53.6194,7.54459 60.6303,7.54459 60.6303,9.41757 "
     class="fil5" /><path
     style="fill:#ffffff;fill-opacity:1"
     inkscape:connector-curvature="0"
     id="path42"
     d="m 48.3587,7.50161 c 1.12281,0 2.00175,0.38896 2.63412,1.16198 0.552742,0.679978 0.831608,1.44584 0.831608,2.30003 0,0.152718 -0.01,0.334094 -0.02993,0.544036 -0.116897,1.04028 -0.659754,1.89928 -1.62576,2.57925 l 1.7802,3.69109 -2.30556,0 -1.52374,-3.054 -1.32205,0 0,3.0755 -2.01917,0 0.0074,-10.2979 3.57283,0 z m -0.291289,5.25155 0.597542,-0.07155 c 0.341077,-0.08833 0.624839,-0.272064 0.853917,-0.551201 0.194253,-0.274421 0.311241,-0.603618 0.351143,-0.985414 0.01732,-0.474842 -0.127054,-0.890011 -0.438204,-1.2454197 -0.263902,-0.28875 -0.644881,-0.450991 -1.14539,-0.48917 l -1.46642,0 0,3.3427497 1.24741,0 z"
     class="fil5" /><path
     style="fill:#ffffff;fill-opacity:1"
     inkscape:connector-curvature="0"
     id="path44"
     d="m 40.1742,7.50161 c 0.670455,0.081166 1.2407,0.348332 1.70829,0.804039 0.467677,0.458155 0.806487,0.997385 1.01652,1.6225 0.09776,0.274421 0.171763,0.637082 0.217016,1.08327 l 0,3.14469 c -0.0692,1.06413 -0.403198,1.92068 -1.00201,2.57445 -0.598903,0.651411 -1.32658,0.999743 -2.18558,1.04028 l -4.05375,0 0.0072,-10.2692 4.29235,0 z m -2.29295,8.24833 1.63438,0 c 0.331645,-0.05015 0.613231,-0.171763 0.847025,-0.365109 0.231435,-0.193256 0.429407,-0.534424 0.594187,-1.01879 0.08824,-0.298272 0.114448,-1.3839 0.07627,-3.25687 -0.219465,-0.968637 -0.725321,-1.527 -1.51748,-1.6702 l -1.63438,0 0,6.31097 z"
     class="fil5" /><polygon
     style="fill:#ffffff;fill-opacity:1"
     id="polygon46"
     points="78.2927,15.9891 78.2856,17.8215 72.3874,17.8215 72.3874,7.55938 74.3225,7.55938 74.3296,15.9891 "
     class="fil5" /><polygon
     style="fill:#ffffff;fill-opacity:1"
     id="polygon54"
     points="22.5254,6.11554 25.315,6.11554 25.315,17.3917 22.5254,17.3917 "
     class="fil6" /><path
     style="fill:#ffffff;fill-rule:nonzero;fill-opacity:1"
     inkscape:connector-curvature="0"
     id="path56"
     d="m 40.3009,29.1805 0,-0.785992 c -0.393948,0.618038 -0.973897,0.926014 -1.73985,0.926014 -0.495972,0 -0.95195,-0.136032 -1.36794,-0.41 -0.415985,-0.271973 -0.737927,-0.65395 -0.967912,-1.14593 -0.227989,-0.489986 -0.341984,-1.05198 -0.341984,-1.68988 0,-0.619942 0.103928,-1.18393 0.309971,-1.68988 0.207947,-0.506038 0.517918,-0.894001 0.931908,-1.16198 0.41399,-0.269978 0.877949,-0.40601 1.38997,-0.40601 0.373906,0 0.707909,0.08008 0.999924,0.238056 0.293919,0.157978 0.531975,0.36393 0.715981,0.617947 l 0,-3.08185 1.0479,0 0,8.5895 -0.977978,0 z m -3.33378,-3.10579 c 0,0.797962 0.167954,1.39387 0.503952,1.78791 0.335999,0.393948 0.731942,0.59192 1.18992,0.59192 0.459969,0 0.852012,-0.189991 1.17395,-0.565983 0.322033,-0.375992 0.484001,-0.95195 0.484001,-1.72588 0,-0.851922 -0.163964,-1.47594 -0.491982,-1.87388 -0.328018,-0.399933 -0.731942,-0.597996 -1.21395,-0.597996 -0.467949,0 -0.859902,0.191986 -1.17395,0.573963 -0.313961,0.381977 -0.47194,0.985958 -0.47194,1.80995 z"
     class="fil4" /><path
     style="fill:#ffffff;fill-rule:nonzero;fill-opacity:1"
     inkscape:connector-curvature="0"
     id="path58"
     d="m 46.9984,28.4126 c -0.391953,0.332008 -0.767945,0.565983 -1.12798,0.703919 -0.361935,0.136032 -0.749898,0.204048 -1.16389,0.204048 -0.683968,0 -1.20796,-0.166049 -1.57588,-0.499962 -0.366016,-0.334003 -0.550022,-0.761959 -0.550022,-1.27997 0,-0.305981 0.06802,-0.583939 0.208038,-0.835961 0.137936,-0.251931 0.319947,-0.453983 0.543946,-0.605976 0.225994,-0.151993 0.478016,-0.267983 0.759964,-0.345974 0.205952,-0.05396 0.517918,-0.108009 0.935899,-0.157978 0.852012,-0.102024 1.47994,-0.222004 1.88195,-0.36393 0.004,-0.144012 0.006,-0.23606 0.006,-0.274059 0,-0.429951 -0.100029,-0.733937 -0.299995,-0.907876 -0.267983,-0.240051 -0.670002,-0.358036 -1.19989,-0.358036 -0.495972,0 -0.861988,0.08606 -1.09995,0.260002 -0.23597,0.17403 -0.41,0.482006 -0.523994,0.923928 l -1.02994,-0.141926 c 0.09404,-0.440017 0.248031,-0.797962 0.461964,-1.06794 0.214023,-0.271973 0.52599,-0.482006 0.931999,-0.628013 0.405919,-0.146007 0.875954,-0.220009 1.41192,-0.220009 0.531884,0 0.961926,0.06403 1.29384,0.187996 0.332008,0.126056 0.575959,0.282039 0.734028,0.47203 0.155983,0.189991 0.263992,0.427956 0.327927,0.717976 0.03401,0.179925 0.05206,0.503952 0.05206,0.971902 l 0,1.40593 c 0,0.981877 0.02195,1.60191 0.06793,1.85983 0.04398,0.260002 0.134037,0.510029 0.265987,0.747993 l -1.10195,0 c -0.107944,-0.218014 -0.17995,-0.473935 -0.209967,-0.767945 z m -0.08797,-2.35589 c -0.383972,0.157978 -0.957936,0.29002 -1.72189,0.400024 -0.434032,0.06194 -0.742008,0.131951 -0.919938,0.209942 -0.180015,0.07799 -0.320037,0.191986 -0.415985,0.343979 -0.09803,0.149998 -0.148003,0.315956 -0.148003,0.499962 0,0.282039 0.108009,0.516014 0.319947,0.70401 0.212028,0.186001 0.523994,0.279953 0.933994,0.279953 0.405919,0 0.767945,-0.08797 1.0839,-0.265987 0.315956,-0.17802 0.549931,-0.421971 0.697934,-0.729947 0.113995,-0.237965 0.17004,-0.589925 0.17004,-1.05397 l 0,-0.387963 z"
     class="fil4" /><path
     style="fill:#ffffff;fill-rule:nonzero;fill-opacity:1"
     inkscape:connector-curvature="0"
     id="path60"
     d="m 51.914,28.2366 0.151993,0.931999 c -0.296005,0.06194 -0.561993,0.09395 -0.795967,0.09395 -0.383972,0 -0.679978,-0.05994 -0.891915,-0.182011 -0.210033,-0.11998 -0.358036,-0.279953 -0.444008,-0.477925 -0.08597,-0.195976 -0.129956,-0.611962 -0.129956,-1.24397 l 0,-3.57972 -0.774021,0 0,-0.82 0.774021,0 0,-1.54187 1.04989,-0.632004 0,2.17388 1.05996,0 0,0.82 -1.05996,0 0,3.63776 c 0,0.301991 0.01805,0.493977 0.05405,0.579949 0.038,0.08597 0.09794,0.153988 0.18192,0.205952 0.08407,0.05006 0.204048,0.076 0.360031,0.076 0.117985,0 0.271973,-0.01397 0.463959,-0.04199 z"
     class="fil4" /><path
     style="fill:#ffffff;fill-rule:nonzero;fill-opacity:1"
     inkscape:connector-curvature="0"
     id="path62"
     d="m 57.0059,28.4126 c -0.391953,0.332008 -0.767945,0.565983 -1.12798,0.703919 -0.361935,0.136032 -0.749898,0.204048 -1.16389,0.204048 -0.683968,0 -1.20796,-0.166049 -1.57588,-0.499962 -0.366016,-0.334003 -0.550022,-0.761959 -0.550022,-1.27997 0,-0.305981 0.06802,-0.583939 0.208038,-0.835961 0.137936,-0.251931 0.319947,-0.453983 0.543946,-0.605976 0.225994,-0.151993 0.478016,-0.267983 0.759964,-0.345974 0.205952,-0.05396 0.517918,-0.108009 0.935899,-0.157978 0.852012,-0.102024 1.47994,-0.222004 1.88195,-0.36393 0.004,-0.144012 0.006,-0.23606 0.006,-0.274059 0,-0.429951 -0.100029,-0.733937 -0.299995,-0.907876 -0.267983,-0.240051 -0.670002,-0.358036 -1.19989,-0.358036 -0.495972,0 -0.861988,0.08606 -1.09995,0.260002 -0.23597,0.17403 -0.41,0.482006 -0.523994,0.923928 l -1.02994,-0.141926 c 0.09404,-0.440017 0.248031,-0.797962 0.461964,-1.06794 0.214023,-0.271973 0.52599,-0.482006 0.931999,-0.628013 0.405919,-0.146007 0.875954,-0.220009 1.41192,-0.220009 0.531884,0 0.961926,0.06403 1.29384,0.187996 0.332008,0.126056 0.575959,0.282039 0.734028,0.47203 0.155983,0.189991 0.263992,0.427956 0.327927,0.717976 0.03401,0.179925 0.05206,0.503952 0.05206,0.971902 l 0,1.40593 c 0,0.981877 0.02195,1.60191 0.06793,1.85983 0.04398,0.260002 0.134037,0.510029 0.265987,0.747993 l -1.10195,0 c -0.107944,-0.218014 -0.17995,-0.473935 -0.209967,-0.767945 z m -0.08797,-2.35589 c -0.383972,0.157978 -0.957936,0.29002 -1.72189,0.400024 -0.434032,0.06194 -0.742008,0.131951 -0.919938,0.209942 -0.180015,0.07799 -0.320037,0.191986 -0.415985,0.343979 -0.09803,0.149998 -0.148003,0.315956 -0.148003,0.499962 0,0.282039 0.108009,0.516014 0.319947,0.70401 0.212028,0.186001 0.523994,0.279953 0.933994,0.279953 0.405919,0 0.767945,-0.08797 1.0839,-0.265987 0.315956,-0.17802 0.549931,-0.421971 0.697934,-0.729947 0.113995,-0.237965 0.17004,-0.589925 0.17004,-1.05397 l 0,-0.387963 z"
     class="fil4" /><polygon
     style="fill:#ffffff;fill-rule:nonzero;fill-opacity:1"
     id="polygon64"
     points="60.6503,20.591 60.6503,29.1805 59.5963,29.1805 59.5963,20.591 "
     class="fil4" /><path
     style="fill:#ffffff;fill-rule:nonzero;fill-opacity:1"
     inkscape:connector-curvature="0"
     id="path66"
     d="m 66.3461,28.4126 c -0.391953,0.332008 -0.767945,0.565983 -1.12798,0.703919 -0.361935,0.136032 -0.749898,0.204048 -1.16389,0.204048 -0.683968,0 -1.20796,-0.166049 -1.57588,-0.499962 -0.366016,-0.334003 -0.550022,-0.761959 -0.550022,-1.27997 0,-0.305981 0.06802,-0.583939 0.208038,-0.835961 0.137936,-0.251931 0.319947,-0.453983 0.543946,-0.605976 0.225994,-0.151993 0.478016,-0.267983 0.759964,-0.345974 0.205952,-0.05396 0.517918,-0.108009 0.935899,-0.157978 0.852012,-0.102024 1.47994,-0.222004 1.88195,-0.36393 0.004,-0.144012 0.006,-0.23606 0.006,-0.274059 0,-0.429951 -0.100029,-0.733937 -0.299995,-0.907876 -0.267983,-0.240051 -0.670002,-0.358036 -1.19989,-0.358036 -0.495972,0 -0.861988,0.08606 -1.09995,0.260002 -0.23597,0.17403 -0.41,0.482006 -0.523994,0.923928 l -1.02994,-0.141926 c 0.09404,-0.440017 0.248031,-0.797962 0.461964,-1.06794 0.214023,-0.271973 0.52599,-0.482006 0.931999,-0.628013 0.405919,-0.146007 0.875954,-0.220009 1.41192,-0.220009 0.531884,0 0.961926,0.06403 1.29384,0.187996 0.332008,0.126056 0.575959,0.282039 0.734028,0.47203 0.155983,0.189991 0.263992,0.427956 0.327927,0.717976 0.03401,0.179925 0.05205,0.503952 0.05205,0.971902 l 0,1.40593 c 0,0.981877 0.02195,1.60191 0.06793,1.85983 0.04398,0.260002 0.134037,0.510029 0.265987,0.747993 l -1.10195,0 c -0.107934,-0.218014 -0.17994,-0.473935 -0.209957,-0.767945 z m -0.08797,-2.35589 c -0.383972,0.157978 -0.957936,0.29002 -1.72189,0.400024 -0.434032,0.06194 -0.742008,0.131951 -0.919938,0.209942 -0.180015,0.07799 -0.320037,0.191986 -0.415985,0.343979 -0.09803,0.149998 -0.148003,0.315956 -0.148003,0.499962 0,0.282039 0.108009,0.516014 0.319947,0.70401 0.212028,0.186001 0.523994,0.279953 0.933994,0.279953 0.405919,0 0.767945,-0.08797 1.0839,-0.265987 0.315956,-0.17802 0.549931,-0.421971 0.697934,-0.729947 0.113995,-0.237965 0.17004,-0.589925 0.17004,-1.05397 l 0,-0.387963 z"
     class="fil4" /><path
     style="fill:#ffffff;fill-rule:nonzero;fill-opacity:1"
     inkscape:connector-curvature="0"
     id="path68"
     d="m 69.9322,29.1805 -0.977887,0 0,-8.5895 1.05388,0 0,3.0638 c 0.446003,-0.557912 1.01398,-0.837956 1.70393,-0.837956 0.383972,0 0.745908,0.07808 1.08789,0.23207 0.341984,0.153988 0.621937,0.371911 0.843941,0.64996 0.220009,0.279953 0.394039,0.615952 0.518009,1.0119 0.125965,0.393948 0.187996,0.815919 0.187996,1.26392 0,1.06794 -0.263992,1.89193 -0.791977,2.47387 -0.52599,0.581944 -1.1599,0.871964 -1.89792,0.871964 -0.733937,0 -1.3099,-0.305981 -1.72788,-0.919938 l 0,0.779916 z m -0.01197,-3.15784 c 0,0.745998 0.102024,1.28396 0.303986,1.61597 0.331918,0.543946 0.781911,0.815919 1.34789,0.815919 0.461964,0 0.859993,-0.199967 1.1959,-0.601986 0.335999,-0.399933 0.504043,-0.995934 0.504043,-1.78991 0,-0.811928 -0.162059,-1.41192 -0.484001,-1.79789 -0.322033,-0.385968 -0.71199,-0.579949 -1.16797,-0.579949 -0.461964,0 -0.859902,0.199967 -1.1959,0.599991 -0.335999,0.399933 -0.503952,0.979973 -0.503952,1.73785 z"
     class="fil4" /><polygon
     style="fill:#ffffff;fill-rule:nonzero;fill-opacity:1"
     id="polygon70"
     points="79.207,29.3951 79.207,28.3471 83.7188,26.4953 79.207,24.6274 79.207,23.5775 84.8967,26.0093 84.8967,26.9932 "
     class="fil4" /><polygon
     style="fill:#ffffff;fill-rule:nonzero;fill-opacity:1"
     id="polygon72"
     points="33.7187,23.5388 33.7187,24.5867 29.207,26.4386 33.7187,28.3065 33.7187,29.3564 28.0291,26.9246 28.0291,25.9406 "
     class="fil4" /><polygon
     style="fill:#ffffff;fill-opacity:1"
     id="polygon92"
     points="22.5254,26.8612 25.315,26.8612 25.315,20.8598 22.5254,20.8598 "
     class="fil6" /><polygon
     style="fill:#ffffff;fill-opacity:1"
     id="polygon94"
     points="7.59556,20.8598 4.80609,20.8598 4.80609,26.3902 7.59556,26.3902 "
     class="fil7" /><polygon
     style="fill:#ffffff;fill-opacity:1"
     id="polygon96"
     points="7.59556,17.3917 4.80609,17.3917 4.80609,6.11554 7.59556,6.11554 "
     class="fil7" /></svg>