<?xml version="1.0" encoding="UTF-8" standalone="no"?>
<svg
   xmlns:dc="http://purl.org/dc/elements/1.1/"
   xmlns:cc="http://creativecommons.org/ns#"
   xmlns:rdf="http://www.w3.org/1999/02/22-rdf-syntax-ns#"
   xmlns:svg="http://www.w3.org/2000/svg"
   xmlns="http://www.w3.org/2000/svg"
   xmlns:sodipodi="http://sodipodi.sourceforge.net/DTD/sodipodi-0.dtd"
   xmlns:inkscape="http://www.inkscape.org/namespaces/inkscape"
   viewBox="0 0 11 16"
   version="1.1"
   class="si-glyph si-glyph-wind-turbines"
   id="svg2"
   inkscape:version="0.91 r13725"
   sodipodi:docname="si-glyph-wind-turbines.svg"
   width="11"
   height="16">
  <metadata
     id="metadata26">
    <rdf:RDF>
      <cc:Work
         rdf:about="">
        <dc:format>image/svg+xml</dc:format>
        <dc:type
           rdf:resource="http://purl.org/dc/dcmitype/StillImage" />
        <dc:title>683</dc:title>
      </cc:Work>
    </rdf:RDF>
  </metadata>
  <sodipodi:namedview
     pagecolor="#ffffff"
     bordercolor="#666666"
     borderopacity="1"
     objecttolerance="10"
     gridtolerance="10"
     guidetolerance="10"
     inkscape:pageopacity="0"
     inkscape:pageshadow="2"
     inkscape:window-width="1680"
     inkscape:window-height="998"
     id="namedview24"
     showgrid="false"
     fit-margin-top="0.2"
     fit-margin-left="0.2"
     fit-margin-right="0.2"
     fit-margin-bottom="0.2"
     inkscape:zoom="14.75"
     inkscape:cx="6.4847207"
     inkscape:cy="7.9379992"
     inkscape:window-x="1358"
     inkscape:window-y="-8"
     inkscape:window-maximized="1"
     inkscape:current-layer="svg2" />
  <title
     id="title4">683</title>
  <defs
     id="defs6" />
  <g
     id="g8"
     transform="translate(-4.0152793,0.0619996)"
     style="fill:#ffffff;fill-opacity:1;fill-rule:evenodd;stroke:none;stroke-width:1">
    <g
       transform="translate(4,0)"
       id="g10"
       style="fill:#ffffff;fill-opacity:1">
      <g
         id="g12"
         style="fill:#ffffff;fill-opacity:1">
        <path
           d="m 6.938,15.299 c 0,0.352 -1.058,0.639 -1.442,0.639 l 0,0 c -0.385,0 -1.442,-0.287 -1.442,-0.639 L 4.798,7.707 c 0,-0.353 0.313,-0.639 0.698,-0.639 l 0,0 c 0.385,0 0.698,0.286 0.698,0.639 l 0.744,7.592 0,0 z"
           class="si-glyph-fill"
           id="path14"
           inkscape:connector-curvature="0"
           style="fill:#ffffff;fill-opacity:1" />
        <path
           d="m 5.974,3.498 c 0,0.28 -0.21,0.506 -0.468,0.506 l 0,0 c -0.26,0 -0.469,-0.226 -0.469,-0.506 l 0,-2.93 c 0,-0.279 0.209,-0.506 0.469,-0.506 l 0,0 c 0.258,0 0.468,0.227 0.468,0.506 l 0,2.93 0,0 z"
           class="si-glyph-fill"
           id="path16"
           inkscape:connector-curvature="0"
           style="fill:#ffffff;fill-opacity:1" />
        <path
           d="M 0.844,8.939 C 0.579,9.122 0.242,9.091 0.088,8.872 l 0,0 C -0.062,8.653 0.027,8.325 0.291,8.143 L 3.062,6.223 C 3.326,6.041 3.665,6.07 3.817,6.289 l 0,0 c 0.152,0.22 0.062,0.547 -0.203,0.73 l -2.77,1.92 0,0 z"
           class="si-glyph-fill"
           id="path18"
           inkscape:connector-curvature="0"
           style="fill:#ffffff;fill-opacity:1" />
        <path
           d="m 10.712,7.949 c 0.271,0.175 0.354,0.525 0.188,0.783 l 0,0 c -0.168,0.26 -0.521,0.327 -0.791,0.154 L 7.273,7.063 C 7.003,6.89 6.918,6.538 7.085,6.279 l 0,0 C 7.251,6.021 7.605,5.954 7.874,6.126 l 2.838,1.823 0,0 z"
           class="si-glyph-fill"
           id="path20"
           inkscape:connector-curvature="0"
           style="fill:#ffffff;fill-opacity:1" />
      </g>
      <rect
         x="5"
         y="5"
         width="0.90600002"
         height="0.93800002"
         class="si-glyph-fill"
         id="rect22"
         style="fill:#ffffff;fill-opacity:1" />
    </g>
  </g>
</svg>
